<svg fill="#000000" viewBox="0 0 32 32" id="icon" xmlns="http://www.w3.org/2000/svg">
    <g id="SVGRepo_bgCarrier" stroke-width="0"></g>
    <g id="SVGRepo_tracerCarrier" stroke-linecap="round" stroke-linejoin="round"></g>
    <g id="SVGRepo_iconCarrier">
        <defs>
            <style>.cls-1{fill:none;}</style>
        </defs>
        <title>API</title>
        <path d="M8,9H4a2,2,0,0,0-2,2V23H4V18H8v5h2V11A2,2,0,0,0,8,9ZM4,16V11H8v5Z" transform="translate(0 0)"></path>
        <polygon points="22 11 25 11 25 21 22 21 22 23 30 23 30 21 27 21 27 11 30 11 30 9 22 9 22 11"></polygon>
        <path d="M14,23H12V9h6a2,2,0,0,1,2,2v5a2,2,0,0,1-2,2H14Zm0-7h4V11H14Z" transform="translate(0 0)"></path>
        <rect id="_Transparent_Rectangle_" class="cls-1" width="32"
              height="32"></rect>
    </g>
</svg>